<?xml version="1.0" encoding="UTF-8" standalone="no"?>
<svg
   xmlns:dc="http://purl.org/dc/elements/1.1/"
   xmlns:cc="http://creativecommons.org/ns#"
   xmlns:rdf="http://www.w3.org/1999/02/22-rdf-syntax-ns#"
   xmlns:svg="http://www.w3.org/2000/svg"
   xmlns="http://www.w3.org/2000/svg"
   xmlns:sodipodi="http://sodipodi.sourceforge.net/DTD/sodipodi-0.dtd"
   xmlns:inkscape="http://www.inkscape.org/namespaces/inkscape"
   data-name="Layer 1"
   viewBox="0 0 60.32 62.619999"
   x="0px"
   y="0px"
   version="1.1"
   id="svg10"
   sodipodi:docname="database.svg"
   width="60.32"
   height="62.619999"
   inkscape:version="1.0 (4035a4fb49, 2020-05-01)">
  <metadata
     id="metadata16">
    <rdf:RDF>
      <cc:Work
         rdf:about="">
        <dc:format>image/svg+xml</dc:format>
        <dc:type
           rdf:resource="http://purl.org/dc/dcmitype/StillImage" />
        <dc:title>135all</dc:title>
      </cc:Work>
    </rdf:RDF>
  </metadata>
  <defs
     id="defs14" />
  <sodipodi:namedview
     inkscape:document-rotation="0"
     pagecolor="#ffffff"
     bordercolor="#666666"
     borderopacity="1"
     objecttolerance="10"
     gridtolerance="10"
     guidetolerance="10"
     inkscape:pageopacity="0"
     inkscape:pageshadow="2"
     inkscape:window-width="1842"
     inkscape:window-height="1051"
     id="namedview12"
     showgrid="false"
     fit-margin-top="0"
     fit-margin-left="0"
     fit-margin-right="0"
     fit-margin-bottom="0"
     inkscape:zoom="5.88"
     inkscape:cx="30.16"
     inkscape:cy="55.70007"
     inkscape:window-x="-9"
     inkscape:window-y="-9"
     inkscape:window-maximized="1"
     inkscape:current-layer="svg10" />
  <title
     id="title2">135all</title>
  <path
     style="fill:#ffffff"
     d="M 60.32,52.55 V 10.21 C 60.32,3.21 44.68,0 30.16,0 15.64,0 0,3.2 0,10.21 v 42.63 a 2,2 0 0 0 0.16,0.78 c 1.64,6.2 16.31,9 30,9 14.3,0 29.67,-3.1 30.14,-9.89 a 2,2 0 0 0 0.02,-0.18 z m -4,-28.22 c 0,2.19 -9.93,6.21 -26.16,6.21 C 13.93,30.54 4,26.54 4,24.33 v -8.69 c 5.57,3.26 16.16,4.78 26.16,4.78 10,0 20.59,-1.52 26.16,-4.78 z M 4,29.72 c 5.57,3.26 16.16,4.78 26.16,4.78 10,0 20.59,-1.52 26.16,-4.78 v 8.61 c 0,2.19 -9.93,6.21 -26.16,6.21 C 13.93,44.54 4,40.54 4,38.33 Z M 30.16,3.99 c 16.23,0 26.16,4 26.16,6.21 0,2.21 -9.93,6.22 -26.16,6.22 C 13.93,16.42 4,12.42 4,10.21 4,8 13.93,3.99 30.16,3.99 Z m 0,54.67 C 13.93,58.66 4,54.66 4,52.45 v -8.64 c 5.57,3.25 16.16,4.78 26.16,4.78 10,0 20.59,-1.52 26.16,-4.78 v 8.65 c 0,2.18 -9.93,6.21 -26.16,6.21 z"
     id="path4" />
</svg>
