<?xml version="1.0" encoding="UTF-8" standalone="no"?>
<svg
   xmlns:dc="http://purl.org/dc/elements/1.1/"
   xmlns:cc="http://creativecommons.org/ns#"
   xmlns:rdf="http://www.w3.org/1999/02/22-rdf-syntax-ns#"
   xmlns:svg="http://www.w3.org/2000/svg"
   xmlns="http://www.w3.org/2000/svg"
   xmlns:sodipodi="http://sodipodi.sourceforge.net/DTD/sodipodi-0.dtd"
   xmlns:inkscape="http://www.inkscape.org/namespaces/inkscape"
   xml:space="preserve"
   version="1.1"
   style="image-rendering:optimizeQuality;shape-rendering:geometricPrecision;text-rendering:geometricPrecision"
   viewBox="0 0 360.06 360.05999"
   x="0px"
   y="0px"
   fill-rule="evenodd"
   clip-rule="evenodd"
   id="svg3283"
   sodipodi:docname="gear_filled.svg"
   width="360.06"
   height="360.06"
   inkscape:version="1.0 (4035a4fb49, 2020-05-01)"><metadata
     id="metadata3287"><rdf:RDF><cc:Work
         rdf:about=""><dc:format>image/svg+xml</dc:format><dc:type
           rdf:resource="http://purl.org/dc/dcmitype/StillImage" /><dc:title /></cc:Work></rdf:RDF></metadata><sodipodi:namedview
     inkscape:document-rotation="0"
     pagecolor="#ffffff"
     bordercolor="#666666"
     borderopacity="1"
     objecttolerance="10"
     gridtolerance="10"
     guidetolerance="10"
     inkscape:pageopacity="0"
     inkscape:pageshadow="2"
     inkscape:window-width="1842"
     inkscape:window-height="1051"
     id="namedview3285"
     showgrid="false"
     inkscape:zoom="1.6330611"
     inkscape:cx="180.03"
     inkscape:cy="225.03751"
     inkscape:window-x="-9"
     inkscape:window-y="-9"
     inkscape:window-maximized="1"
     inkscape:current-layer="svg3283" /><defs
     id="defs3273"><style
       type="text/css"
       id="style3271">
   
    .fil0 {fill:black}
   
  </style></defs><g
     style="fill:#ffffff"
     id="g3277"><path
       style="fill:#ffffff"
       class="fil0"
       d="m 224.08,44.42 c 7.14,2.32 14.06,5.19 20.65,8.56 3.82,1.95 8.12,1.68 11.66,-0.77 l 22,-15.21 c 4.57,-3.15 10.61,-2.61 14.53,1.32 l 28.79,28.79 c 3.93,3.92 4.47,9.97 1.32,14.53 l -15.19,21.99 c -2.46,3.54 -2.73,7.82 -0.77,11.66 3.37,6.6 6.25,13.53 8.57,20.67 1.33,4.09 4.56,6.92 8.79,7.69 l 26.28,4.79 c 5.47,1 9.35,5.66 9.35,11.22 v 40.71 c 0,5.55 -3.88,10.21 -9.35,11.21 l -26.27,4.81 c -4.23,0.76 -7.46,3.59 -8.78,7.69 -2.31,7.15 -5.21,14.05 -8.58,20.66 -1.95,3.84 -1.67,8.12 0.78,11.67 l 15.2,21.98 c 3.15,4.57 2.61,10.61 -1.32,14.53 l -28.79,28.79 c -3.92,3.93 -9.97,4.47 -14.53,1.32 l -21.99,-15.19 c -3.54,-2.46 -7.82,-2.73 -11.66,-0.77 -6.6,3.37 -13.53,6.25 -20.67,8.57 -4.09,1.33 -6.92,4.56 -7.69,8.79 l -4.79,26.28 c -1,5.47 -5.66,9.35 -11.22,9.35 h -40.71 c -5.55,0 -10.21,-3.88 -11.21,-9.35 l -4.81,-26.27 c -0.76,-4.23 -3.59,-7.46 -7.69,-8.78 -7.15,-2.31 -14.05,-5.21 -20.66,-8.58 -3.84,-1.95 -8.12,-1.67 -11.67,0.78 l -21.98,15.2 c -4.57,3.15 -10.61,2.61 -14.53,-1.32 L 38.35,292.95 c -3.93,-3.92 -4.47,-9.97 -1.32,-14.53 l 15.19,-21.99 c 2.46,-3.54 2.73,-7.82 0.77,-11.66 -3.37,-6.6 -6.25,-13.53 -8.57,-20.67 -1.33,-4.09 -4.56,-6.92 -8.79,-7.69 L 9.35,211.62 C 3.88,210.62 0,205.96 0,200.4 v -40.71 c 0,-5.55 3.88,-10.21 9.35,-11.21 l 26.27,-4.81 c 4.23,-0.76 7.46,-3.59 8.78,-7.69 2.31,-7.15 5.21,-14.05 8.58,-20.66 1.95,-3.84 1.67,-8.12 -0.78,-11.67 L 37,81.67 C 33.85,77.1 34.39,71.06 38.32,67.14 L 67.11,38.35 c 3.92,-3.93 9.97,-4.47 14.53,-1.32 l 21.99,15.19 c 3.54,2.46 7.82,2.73 11.66,0.77 6.6,-3.37 13.53,-6.25 20.67,-8.57 4.09,-1.33 6.92,-4.56 7.69,-8.79 L 148.44,9.35 C 149.44,3.88 154.1,0 159.66,0 h 40.71 c 5.56,0 10.22,3.88 11.22,9.35 l 4.8,26.28 c 0.76,4.23 3.59,7.47 7.69,8.79 z m -44.05,50.09 c 47.23,0 85.52,38.29 85.52,85.52 0,47.23 -38.29,85.52 -85.52,85.52 -47.23,0 -85.52,-38.29 -85.52,-85.52 0,-47.23 38.29,-85.52 85.52,-85.52 z"
       id="path3275" /></g></svg>
