<?xml version="1.0" encoding="UTF-8" standalone="no"?>
<svg
   xmlns:dc="http://purl.org/dc/elements/1.1/"
   xmlns:cc="http://creativecommons.org/ns#"
   xmlns:rdf="http://www.w3.org/1999/02/22-rdf-syntax-ns#"
   xmlns:svg="http://www.w3.org/2000/svg"
   xmlns="http://www.w3.org/2000/svg"
   xmlns:sodipodi="http://sodipodi.sourceforge.net/DTD/sodipodi-0.dtd"
   xmlns:inkscape="http://www.inkscape.org/namespaces/inkscape"
   height="99.999001"
   width="99.999001"
   version="1.1"
   x="0px"
   y="0px"
   viewBox="0 0 99.999001 99.999001"
   enable-background="new 0 0 100 100"
   xml:space="preserve"
   id="svg16"
   sodipodi:docname="gear.svg"
   inkscape:version="1.0 (4035a4fb49, 2020-05-01)"><metadata
     id="metadata22"><rdf:RDF><cc:Work
         rdf:about=""><dc:format>image/svg+xml</dc:format><dc:type
           rdf:resource="http://purl.org/dc/dcmitype/StillImage" /><dc:title></dc:title></cc:Work></rdf:RDF></metadata><defs
     id="defs20" /><sodipodi:namedview
     fit-margin-bottom="0"
     fit-margin-right="0"
     fit-margin-left="0"
     fit-margin-top="0"
     inkscape:document-rotation="0"
     pagecolor="#ffffff"
     bordercolor="#666666"
     borderopacity="1"
     objecttolerance="10"
     gridtolerance="10"
     guidetolerance="10"
     inkscape:pageopacity="0"
     inkscape:pageshadow="2"
     inkscape:window-width="1858"
     inkscape:window-height="1057"
     id="namedview18"
     showgrid="false"
     inkscape:zoom="4.1577879"
     inkscape:cx="74.796458"
     inkscape:cy="49.10972"
     inkscape:window-x="1912"
     inkscape:window-y="-8"
     inkscape:window-maximized="1"
     inkscape:current-layer="svg16" /><g
     transform="translate(0,-10e-4)"
     id="g10"><path
       d="M 99.394,42.19 C 99.291,41.502 98.779,40.956 98.108,40.791 L 92.9,39.535 c -3.023,-0.723 -5.231,-2.405 -6.191,-4.74 -0.975,-2.331 -0.607,-5.083 1.024,-7.738 l 2.791,-4.561 C 90.881,21.911 90.848,21.157 90.442,20.602 87.356,16.355 83.643,12.642 79.395,9.557 78.842,9.152 78.09,9.118 77.502,9.474 l -4.559,2.793 c -1.664,1.016 -3.399,1.546 -5.042,1.546 -3.587,0 -6.442,-2.571 -7.447,-6.713 L 59.211,1.89 C 59.043,1.223 58.488,0.71 57.809,0.607 52.663,-0.201 47.339,-0.201 42.193,0.607 41.513,0.71 40.96,1.223 40.802,1.89 L 39.546,7.1 c -1.002,4.142 -3.859,6.713 -7.447,6.713 -1.641,0 -3.378,-0.53 -5.04,-1.546 L 22.498,9.474 C 21.913,9.118 21.16,9.152 20.605,9.557 16.359,12.642 12.647,16.356 9.561,20.602 9.152,21.157 9.122,21.911 9.477,22.496 l 2.794,4.561 c 1.631,2.654 1.987,5.407 1.023,7.738 -0.962,2.335 -3.16,4.017 -6.19,4.74 L 1.893,40.791 C 1.225,40.956 0.712,41.502 0.607,42.19 0.21,44.765 0,47.388 0,49.994 c 0,2.614 0.21,5.24 0.607,7.811 0.104,0.681 0.617,1.234 1.286,1.392 l 5.211,1.257 c 3.03,0.729 5.228,2.415 6.19,4.747 0.964,2.335 0.607,5.083 -1.023,7.742 l -2.794,4.559 c -0.355,0.586 -0.324,1.338 0.084,1.892 3.085,4.246 6.798,7.961 11.044,11.045 0.555,0.41 1.308,0.439 1.893,0.073 l 4.561,-2.782 c 1.662,-1.014 3.399,-1.558 5.04,-1.558 3.588,0 6.445,2.584 7.447,6.725 l 1.256,5.209 c 0.158,0.671 0.711,1.173 1.391,1.288 2.573,0.397 5.199,0.606 7.813,0.606 2.606,0 5.23,-0.209 7.802,-0.606 0.68,-0.115 1.234,-0.617 1.402,-1.288 l 1.243,-5.209 c 1.005,-4.141 3.86,-6.725 7.447,-6.725 1.643,0 3.378,0.544 5.042,1.558 l 4.559,2.782 c 0.588,0.366 1.34,0.337 1.893,-0.073 4.248,-3.084 7.961,-6.799 11.047,-11.045 0.406,-0.554 0.439,-1.306 0.082,-1.892 l -2.791,-4.559 c -1.632,-2.659 -1.999,-5.407 -1.024,-7.742 0.96,-2.332 3.168,-4.018 6.191,-4.747 l 5.208,-1.257 c 0.671,-0.157 1.184,-0.711 1.286,-1.392 0.397,-2.571 0.606,-5.197 0.606,-7.811 C 100,47.388 99.791,44.765 99.394,42.19 Z m -3.212,13.964 -4.077,0.981 c -4.121,0.993 -7.166,3.391 -8.558,6.756 -1.391,3.369 -0.94,7.209 1.266,10.827 l 2.198,3.577 c -2.511,3.273 -5.438,6.192 -8.714,8.702 L 74.72,84.811 c -2.194,-1.339 -4.548,-2.051 -6.818,-2.051 -5.167,0 -9.394,3.66 -10.764,9.339 l -0.982,4.08 c -4.067,0.533 -8.241,0.533 -12.31,0 l -0.983,-4.08 C 41.491,86.42 37.266,82.76 32.099,82.76 c -2.268,0 -4.622,0.712 -6.818,2.051 l -3.577,2.186 c -3.271,-2.51 -6.203,-5.429 -8.703,-8.702 l 2.176,-3.577 C 17.394,71.1 17.844,67.26 16.452,63.891 15.054,60.526 12.019,58.128 7.9,57.135 L 3.818,56.154 c -0.271,-2.041 -0.397,-4.1 -0.397,-6.161 0,-2.049 0.127,-4.12 0.397,-6.152 L 7.9,42.859 c 4.12,-0.994 7.154,-3.389 8.552,-6.756 1.391,-3.367 0.941,-7.216 -1.275,-10.824 L 13,21.702 c 2.5,-3.274 5.432,-6.203 8.703,-8.713 l 3.577,2.186 c 2.197,1.35 4.551,2.061 6.818,2.061 5.167,0 9.392,-3.67 10.764,-9.34 l 0.983,-4.079 c 4.069,-0.536 8.242,-0.536 12.31,0 l 0.982,4.079 c 1.37,5.67 5.597,9.34 10.776,9.34 2.258,0 4.611,-0.71 6.806,-2.061 l 3.577,-2.186 c 3.275,2.51 6.203,5.439 8.714,8.713 l -2.198,3.577 c -2.206,3.608 -2.656,7.457 -1.266,10.824 1.392,3.367 4.437,5.763 8.558,6.756 l 4.077,0.982 c 0.264,2.032 0.41,4.103 0.41,6.152 0.001,2.062 -0.146,4.12 -0.409,6.161 z"
       id="path2" /><path
       d="m 50.006,21.953 c -0.952,0 -1.717,0.763 -1.717,1.707 0,0.94 0.765,1.702 1.717,1.702 13.577,0 24.63,11.058 24.63,24.633 0,0.94 0.763,1.715 1.705,1.715 0.941,0 1.705,-0.775 1.705,-1.715 C 78.047,34.536 65.463,21.953 50.006,21.953 Z"
       id="path4" /><path
       d="m 67.421,67.419 c -4.654,4.653 -10.834,7.217 -17.415,7.217 -6.589,0 -12.772,-2.563 -17.424,-7.217 -9.602,-9.602 -9.602,-25.237 0,-34.839 0.668,-0.669 0.668,-1.747 0,-2.416 -0.671,-0.669 -1.749,-0.669 -2.418,0 -10.93,10.941 -10.93,28.73 0,39.671 5.305,5.294 12.343,8.209 19.843,8.209 7.488,0 14.529,-2.915 19.829,-8.209 0.67,-0.668 0.67,-1.747 0,-2.416 -0.668,-0.672 -1.746,-0.672 -2.415,0 z"
       id="path6" /><path
       d="m 50.006,64.876 c 8.2,0 14.874,-6.674 14.874,-14.882 0,-8.201 -6.674,-14.873 -14.874,-14.873 -8.211,0 -14.882,6.672 -14.882,14.873 10e-4,8.208 6.671,14.882 14.882,14.882 z m 0,-26.347 c 6.316,0 11.463,5.148 11.463,11.465 0,6.329 -5.147,11.464 -11.463,11.464 -6.33,0 -11.463,-5.136 -11.463,-11.464 0,-6.317 5.134,-11.465 11.463,-11.465 z"
       id="path8" /></g></svg>
