<?xml version="1.0" encoding="UTF-8" standalone="no"?>
<svg
   xmlns:dc="http://purl.org/dc/elements/1.1/"
   xmlns:cc="http://creativecommons.org/ns#"
   xmlns:rdf="http://www.w3.org/1999/02/22-rdf-syntax-ns#"
   xmlns:svg="http://www.w3.org/2000/svg"
   xmlns="http://www.w3.org/2000/svg"
   xmlns:sodipodi="http://sodipodi.sourceforge.net/DTD/sodipodi-0.dtd"
   xmlns:inkscape="http://www.inkscape.org/namespaces/inkscape"
   version="1.1"
   x="0px"
   y="0px"
   viewBox="0 0 50.003002 49.99625"
   xml:space="preserve"
   id="svg1482"
   sodipodi:docname="link.svg"
   width="50.003002"
   height="49.99625"
   inkscape:version="1.0 (4035a4fb49, 2020-05-01)"><metadata
     id="metadata1488"><rdf:RDF><cc:Work
         rdf:about=""><dc:format>image/svg+xml</dc:format><dc:type
           rdf:resource="http://purl.org/dc/dcmitype/StillImage" /><dc:title /></cc:Work></rdf:RDF></metadata><defs
     id="defs1486" /><sodipodi:namedview
     showguides="false"
     inkscape:document-rotation="0"
     pagecolor="#ffffff"
     bordercolor="#666666"
     borderopacity="1"
     objecttolerance="10"
     gridtolerance="10"
     guidetolerance="10"
     inkscape:pageopacity="0"
     inkscape:pageshadow="2"
     inkscape:window-width="1842"
     inkscape:window-height="1051"
     id="namedview1484"
     showgrid="false"
     inkscape:zoom="8.3160747"
     inkscape:cx="29.192817"
     inkscape:cy="33.097182"
     inkscape:window-x="-9"
     inkscape:window-y="-9"
     inkscape:window-maximized="1"
     inkscape:current-layer="svg1482" /><g
     style="fill:#ffffff"
     id="g1476"
     transform="translate(0.00100033)"><path
       style="fill:#ffffff"
       d="m 27.332,3.889 -8.771,8.769 c 2.612,-0.727 5.404,-0.776 8.054,-0.068 0.359,0.098 0.704,0.233 1.055,0.354 l 4.358,-4.358 c 2.59,-2.595 6.791,-2.586 9.388,0 2.59,2.602 2.588,6.791 -0.002,9.386 l -5.926,5.928 -3.46,3.458 c -0.854,0.854 -1.889,1.4 -2.98,1.691 -2.213,0.597 -4.665,0.053 -6.405,-1.688 -1.174,-1.171 -1.791,-2.669 -1.896,-4.198 -0.513,0.224 -0.985,0.501 -1.369,0.883 l -4.108,4.108 c 0.642,1.411 1.514,2.743 2.677,3.903 1.709,1.712 3.775,2.846 5.957,3.427 3.4,0.906 7.084,0.438 10.185,-1.402 0.938,-0.555 1.829,-1.223 2.635,-2.028 l 9.388,-9.388 C 51.303,17.478 51.292,9.072 46.119,3.89 40.922,-1.293 32.518,-1.3 27.332,3.889 Z"
       id="path1472" /><path
       style="fill:#ffffff"
       d="m 31.404,37.353 c -2.978,0.823 -6.149,0.721 -9.079,-0.289 l -4.348,4.351 C 15.382,44 11.181,44 8.587,41.412 5.996,38.813 6.001,34.621 8.584,32.022 l 9.392,-9.39 c 0.857,-0.851 1.887,-1.395 2.974,-1.685 2.213,-0.593 4.665,-0.049 6.412,1.688 1.174,1.183 1.791,2.69 1.891,4.228 0.491,-0.224 0.957,-0.521 1.36,-0.925 l 4.113,-4.11 c -0.638,-1.407 -1.508,-2.734 -2.664,-3.893 -1.715,-1.709 -3.779,-2.844 -5.959,-3.425 -3.404,-0.908 -7.084,-0.438 -10.188,1.4 -0.937,0.553 -1.827,1.219 -2.635,2.024 l -9.39,9.39 c -5.186,5.189 -5.189,13.598 -0.003,18.782 5.188,5.187 13.592,5.187 18.783,0 z"
       id="path1474" /></g></svg>
