<?xml version="1.0" encoding="UTF-8" standalone="no"?>
<svg
   xmlns:dc="http://purl.org/dc/elements/1.1/"
   xmlns:cc="http://creativecommons.org/ns#"
   xmlns:rdf="http://www.w3.org/1999/02/22-rdf-syntax-ns#"
   xmlns:svg="http://www.w3.org/2000/svg"
   xmlns="http://www.w3.org/2000/svg"
   xmlns:sodipodi="http://sodipodi.sourceforge.net/DTD/sodipodi-0.dtd"
   xmlns:inkscape="http://www.inkscape.org/namespaces/inkscape"
   xml:space="preserve"
   version="1.1"
   style="image-rendering:optimizeQuality;shape-rendering:geometricPrecision;text-rendering:geometricPrecision"
   viewBox="0 0 7954 6782"
   x="0px"
   y="0px"
   fill-rule="evenodd"
   clip-rule="evenodd"
   id="svg887"
   sodipodi:docname="network.svg"
   width="7954"
   height="6782"
   inkscape:version="1.0 (4035a4fb49, 2020-05-01)"><metadata
     id="metadata891"><rdf:RDF><cc:Work
         rdf:about=""><dc:format>image/svg+xml</dc:format><dc:type
           rdf:resource="http://purl.org/dc/dcmitype/StillImage" /><dc:title /></cc:Work></rdf:RDF></metadata><sodipodi:namedview
     inkscape:document-rotation="0"
     pagecolor="#ffffff"
     bordercolor="#666666"
     borderopacity="1"
     objecttolerance="10"
     gridtolerance="10"
     guidetolerance="10"
     inkscape:pageopacity="0"
     inkscape:pageshadow="2"
     inkscape:window-width="1842"
     inkscape:window-height="1051"
     id="namedview889"
     showgrid="false"
     fit-margin-top="0"
     fit-margin-left="0"
     fit-margin-right="0"
     fit-margin-bottom="0"
     inkscape:zoom="0.0588"
     inkscape:cx="3977"
     inkscape:cy="4641"
     inkscape:window-x="-9"
     inkscape:window-y="-9"
     inkscape:window-maximized="1"
     inkscape:current-layer="svg887" /><defs
     id="defs877"><style
       type="text/css"
       id="style875">
   
    .fil0 {fill:black}
   
  </style></defs><g
     style="fill:#ffffff"
     id="g881"
     transform="translate(-1023,-1609)"><path
       style="fill:#ffffff"
       class="fil0"
       d="m 5214,4047 c 83,0 163,10 240,28 l 253,-1110 c -280,-89 -484,-352 -484,-662 0,-383 311,-694 695,-694 383,0 694,311 694,694 0,376 -299,683 -672,694 l -264,1158 c 291,145 505,422 563,753 l 1026,-79 c 23,-453 397,-813 855,-813 473,0 857,384 857,857 0,473 -384,856 -857,856 -408,0 -749,-285 -835,-667 l -1033,80 c -17,336 -194,630 -457,807 l 402,654 c 108,-50 229,-78 356,-78 470,0 850,380 850,850 0,469 -380,850 -850,850 -469,0 -850,-381 -850,-850 0,-258 115,-489 296,-645 l -412,-672 c -116,45 -242,69 -373,69 -272,0 -520,-105 -705,-276 L 2990,6878 c 73,142 113,303 113,473 0,574 -465,1040 -1040,1040 -574,0 -1040,-466 -1040,-1040 0,-575 466,-1040 1040,-1040 320,0 607,144 797,372 L 4354,5672 c -114,-166 -180,-368 -180,-585 0,-129 23,-253 67,-367 L 2243,3009 c -119,86 -266,138 -424,138 -398,0 -721,-323 -721,-721 0,-398 323,-721 721,-721 398,0 721,323 721,721 0,155 -49,298 -132,416 l 1943,1664 c 187,-277 504,-459 863,-459 z"
       id="path879" /></g></svg>
