<?xml version="1.0" encoding="UTF-8" standalone="no"?>
<svg
   xmlns:dc="http://purl.org/dc/elements/1.1/"
   xmlns:cc="http://creativecommons.org/ns#"
   xmlns:rdf="http://www.w3.org/1999/02/22-rdf-syntax-ns#"
   xmlns:svg="http://www.w3.org/2000/svg"
   xmlns="http://www.w3.org/2000/svg"
   xmlns:sodipodi="http://sodipodi.sourceforge.net/DTD/sodipodi-0.dtd"
   xmlns:inkscape="http://www.inkscape.org/namespaces/inkscape"
   version="1.1"
   x="0px"
   y="0px"
   viewBox="0 0 55.931458 52.89732"
   enable-background="new 0 0 100 100"
   xml:space="preserve"
   id="svg90"
   sodipodi:docname="owl_scribbles_reduced.svg"
   width="55.931458"
   height="52.89732"
   inkscape:version="1.0 (4035a4fb49, 2020-05-01)"><metadata
     id="metadata96"><rdf:RDF><cc:Work
         rdf:about=""><dc:format>image/svg+xml</dc:format><dc:type
           rdf:resource="http://purl.org/dc/dcmitype/StillImage" /><dc:title></dc:title></cc:Work></rdf:RDF></metadata><defs
     id="defs94" /><sodipodi:namedview
     inkscape:document-rotation="0"
     pagecolor="#ffffff"
     bordercolor="#666666"
     borderopacity="1"
     objecttolerance="10"
     gridtolerance="10"
     guidetolerance="10"
     inkscape:pageopacity="0"
     inkscape:pageshadow="2"
     inkscape:window-width="1858"
     inkscape:window-height="1057"
     id="namedview92"
     showgrid="false"
     inkscape:zoom="8.3155757"
     inkscape:cx="27.559899"
     inkscape:cy="22.375091"
     inkscape:window-x="1912"
     inkscape:window-y="-8"
     inkscape:window-maximized="1"
     inkscape:current-layer="svg90" /><rect
     ry="5.5317879"
     style="opacity:0.994;fill:#803300;stroke-width:0.692967"
     id="rect957"
     width="31.627396"
     height="13.54629"
     x="11.664858"
     y="2.971482" /><path
     sodipodi:nodetypes="scccssss"
     id="path967"
     d="M 4.0816327,21.343537 C 7.5937718,6.1254116 50.935374,21.598639 50.935374,21.598639 l 0.170068,25.170069 -14.965986,4.2517 c 0,0 -13.028954,-0.09844 -19.637699,-1.200792 C 13.96061,49.395745 10.07886,48.37466 8.0618717,46.384803 6.4137875,44.758888 3.1918368,40.970448 3.1505317,38.034225 3.0745111,32.630208 3.1293702,25.469698 4.0816327,21.343537 Z"
     style="fill:#c87137;stroke:none;stroke-width:1px;stroke-linecap:butt;stroke-linejoin:miter;stroke-opacity:1" /><circle
     r="10.792999"
     cy="20.4135"
     cx="16.084274"
     id="path951"
     style="opacity:0.994;fill:#deaa87;stroke-width:1.95109" /><circle
     style="opacity:0.994;fill:#deaa87;stroke-width:1.94566"
     id="circle953"
     cx="39.023151"
     cy="20.383436"
     r="10.762936" /><path
     sodipodi:nodetypes="scsccsssssssssccs"
     id="path2"
     d="m 31.855052,52.897319 c -4.4,0 -9.5,-0.5 -15.6,-1.6 -0.9,-0.2 -1.6,-1.1 -1.4,-2 0.2,-0.9 1.1,-1.6 2,-1.4 20.2,3.9 29.8,-0.7 32.3,-2.1 V 23 c 0,-10.7 -9.8,-19.5 -21.8,-19.5 -12,0 -21.8000002,8.7 -21.8000002,19.5 v 15.8 c 0,1 -0.8,1.7 -1.7,1.7 -1,0 -1.7,-0.8 -1.7,-1.7 V 23 c 0,-12.7 11.3000002,-23 25.3000002,-23 14,0 25.3,10.3 25.3,23 v 24.397319 l -0.6,0.5 c -0.4,0.3 -6.2,5 -20.3,5 z"
     fill="#000000" /><circle
     r="2.6757016"
     cy="21.435677"
     cx="15.362737"
     id="path959"
     style="opacity:0.994;fill:#ffffff" /><g
     transform="translate(-22.144948,-5.3)"
     id="g8"><path
       fill="#000000"
       d="m 37.4,32.1 c -3.1,0 -5.6,-2.5 -5.6,-5.6 0,-3.1 2.5,-5.6 5.6,-5.6 3.1,0 5.6,2.5 5.6,5.6 0,3.1 -2.5,5.6 -5.6,5.6 z m 0,-7.8 c -1.2,0 -2.1,1 -2.1,2.1 0,1.2 1,2.1 2.1,2.1 1.2,0 2.1,-1 2.1,-2.1 0,-1.1 -0.9,-2.1 -2.1,-2.1 z"
       id="path6" /></g><circle
     style="opacity:0.994;fill:#ffffff"
     id="circle961"
     cx="39.293732"
     cy="21.435677"
     r="2.6757016" /><g
     transform="translate(-22.144948,-5.3)"
     id="g12"><path
       fill="#000000"
       d="m 61.8,32.1 c -3.1,0 -5.6,-2.5 -5.6,-5.6 0,-3.1 2.5,-5.6 5.6,-5.6 3.1,0 5.6,2.5 5.6,5.6 0,3.1 -2.5,5.6 -5.6,5.6 z m 0,-7.8 c -1.2,0 -2.1,1 -2.1,2.1 0,1.2 1,2.1 2.1,2.1 1.2,0 2.1,-1 2.1,-2.1 C 64,25.3 63,24.3 61.8,24.3 Z"
       id="path10" /></g><g
     transform="translate(-22.144948,-5.3)"
     id="g16"><path
       fill="#000000"
       d="m 49.6,32.4 c 0,0 0,0 0,0 -1,0 -1.7,-0.8 -1.7,-1.8 C 47.9,24.3 46.4,20 43.3,18 38.4,14.7 31.1,17.8 31,17.8 l -6.4,2.7 c -0.9,0.4 -1.9,0 -2.3,-0.9 -0.4,-0.9 0,-1.9 0.9,-2.3 l 6.4,-2.7 c 0.4,-0.2 9.2,-3.8 15.6,0.5 4.1,2.7 6.2,8 6.2,15.5 -0.1,1 -0.9,1.8 -1.8,1.8 z"
       id="path14" /></g><g
     transform="translate(-22.144948,-5.3)"
     id="g20"><path
       fill="#000000"
       d="m 49.6,32.4 c -1,0 -1.7,-0.8 -1.7,-1.7 0,-7.6 2,-12.8 6.2,-15.5 6.4,-4.3 15.2,-0.6 15.6,-0.5 l 0.2,0.1 7.3,4 c 0.8,0.5 1.1,1.5 0.7,2.4 -0.5,0.8 -1.5,1.2 -2.4,0.7 l -7.2,-4 C 67.5,17.6 60.6,15 56,18.1 c -3.1,2.1 -4.6,6.3 -4.6,12.6 -0.1,0.9 -0.9,1.6 -1.8,1.7 0,0 0,0 0,0 z"
       id="path18" /></g><path
     id="path965"
     d="m 23.44997,27.057657 4.088712,6.493838 4.329226,-6.493838 z"
     style="fill:#ffcc00;stroke:#000000;stroke-width:1px;stroke-linecap:butt;stroke-linejoin:miter;stroke-opacity:1" /><g
     style="stroke-width:0.7;stroke-miterlimit:4;stroke-dasharray:none"
     transform="translate(-22.144948,-5.3)"
     id="g60"><path
       style="stroke-width:0.7;stroke-miterlimit:4;stroke-dasharray:none"
       fill="#000000"
       d="m 49.7,41.1 c -0.5,0 -1,-0.3 -1.3,-0.7 l -4.8,-8.3 c -0.3,-0.4 -0.3,-1 0,-1.5 0.3,-0.4 0.7,-0.7 1.3,-0.7 h 9.6 c 0.5,0 1,0.3 1.3,0.7 0.3,0.4 0.3,1 0,1.5 L 51,40.4 c -0.3,0.5 -0.8,0.7 -1.3,0.7 z m -2.3,-8.3 2.3,4 2.3,-4 z"
       id="path58" /></g><g
     transform="translate(-22.144948,-5.3)"
     id="g64"><path
       fill="#000000"
       d="m 74.5,15 h -8.3 c -1,0 -1.7,-0.8 -1.7,-1.7 0,-0.9 0.8,-1.7 1.7,-1.7 h 8.3 c 1,0 1.7,0.8 1.7,1.7 0,0.9 -0.8,1.7 -1.7,1.7 z"
       id="path62" /></g><g
     transform="translate(-22.144948,-5.3)"
     id="g68"><path
       fill="#000000"
       d="m 65.7,13.5 c -0.6,0 -1.2,-0.3 -1.5,-0.9 -0.5,-0.8 -0.2,-1.9 0.7,-2.4 l 5.4,-2.9 c 0.8,-0.5 1.9,-0.2 2.4,0.7 0.5,0.8 0.2,1.9 -0.7,2.4 l -5.4,2.9 c -0.3,0.1 -0.6,0.2 -0.9,0.2 z"
       id="path66" /></g><g
     transform="translate(-22.144948,-5.3)"
     id="g72"><path
       fill="#000000"
       d="m 32.7,13.5 c -0.3,0 -0.6,-0.1 -0.8,-0.2 L 26.5,10.4 C 25.7,9.9 25.3,8.9 25.8,8 26.3,7.2 27.3,6.8 28.2,7.3 l 5.4,2.9 c 0.8,0.5 1.2,1.5 0.7,2.4 -0.4,0.5 -1,0.9 -1.6,0.9 z"
       id="path70" /></g><g
     transform="translate(-22.144948,-5.3)"
     id="g76"><path
       fill="#000000"
       d="m 32.6,15 h -8.3 c -1,0 -1.7,-0.8 -1.7,-1.7 0,-0.9 0.8,-1.7 1.7,-1.7 h 8.3 c 1,0 1.7,0.8 1.7,1.7 0,0.9 -0.7,1.7 -1.7,1.7 z"
       id="path74" /></g><g
     style="stroke:#ffb380"
     id="g38"
     transform="translate(-16.589536,-14.880567)"><path
       style="stroke:#ffb380"
       fill="#000000"
       d="m 52.5,62.2 c -0.1,0 -0.3,-0.1 -0.4,-0.2 -0.3,-0.3 -0.3,-0.8 0,-1.1 l 3.2,-3.2 -5,-0.7 5.2,-5.3 c 0.3,-0.3 0.8,-0.3 1.1,0 0.3,0.3 0.3,0.8 0,1.1 l -3.1,3.1 4.9,0.7 -5.3,5.4 c -0.1,0.1 -0.4,0.2 -0.6,0.2 z"
       id="path34" /><path
       style="stroke:#ffb380"
       fill="#000000"
       d="m 52.6,62.5 c -0.1,0 -0.1,0 -0.2,0 -0.2,0 -0.4,-0.1 -0.5,-0.3 -0.4,-0.4 -0.4,-1.1 0,-1.5 l 2.7,-2.8 -4.9,-0.7 5.6,-5.7 c 0.4,-0.4 1.1,-0.4 1.5,0 0.4,0.4 0.4,1.1 0,1.5 l -2.7,2.7 4.9,0.7 -5.7,5.8 c -0.1,0.1 -0.4,0.3 -0.7,0.3 z m -1.7,-5.7 4.9,0.7 -3.6,3.6 c -0.2,0.2 -0.2,0.5 0,0.7 0.1,0.1 0.2,0.1 0.2,0.1 0.2,0 0.3,0 0.4,-0.1 l 4.9,-5 -4.7,-0.7 3.5,-3.5 c 0.2,-0.2 0.2,-0.5 0,-0.7 -0.2,-0.2 -0.5,-0.2 -0.7,0 z"
       id="path36" /></g><g
     transform="rotate(-75,24.034245,72.545693)"
     id="g983"
     style="stroke:#ffb380"><path
       id="path979"
       d="m 52.5,62.2 c -0.1,0 -0.3,-0.1 -0.4,-0.2 -0.3,-0.3 -0.3,-0.8 0,-1.1 l 3.2,-3.2 -5,-0.7 5.2,-5.3 c 0.3,-0.3 0.8,-0.3 1.1,0 0.3,0.3 0.3,0.8 0,1.1 l -3.1,3.1 4.9,0.7 -5.3,5.4 c -0.1,0.1 -0.4,0.2 -0.6,0.2 z"
       fill="#000000"
       style="stroke:#ffb380" /><path
       id="path981"
       d="m 52.6,62.5 c -0.1,0 -0.1,0 -0.2,0 -0.2,0 -0.4,-0.1 -0.5,-0.3 -0.4,-0.4 -0.4,-1.1 0,-1.5 l 2.7,-2.8 -4.9,-0.7 5.6,-5.7 c 0.4,-0.4 1.1,-0.4 1.5,0 0.4,0.4 0.4,1.1 0,1.5 l -2.7,2.7 4.9,0.7 -5.7,5.8 c -0.1,0.1 -0.4,0.3 -0.7,0.3 z m -1.7,-5.7 4.9,0.7 -3.6,3.6 c -0.2,0.2 -0.2,0.5 0,0.7 0.1,0.1 0.2,0.1 0.2,0.1 0.2,0 0.3,0 0.4,-0.1 l 4.9,-5 -4.7,-0.7 3.5,-3.5 c 0.2,-0.2 0.2,-0.5 0,-0.7 -0.2,-0.2 -0.5,-0.2 -0.7,0 z"
       fill="#000000"
       style="stroke:#ffb380" /></g></svg>
