<svg xmlns="http://www.w3.org/2000/svg" xmlns:xlink="http://www.w3.org/1999/xlink" version="1.1" x="0px" y="0px" viewBox="-55 147 500 625" style="enable-background:new -55 147 500 500;" xml:space="preserve"><g><path d="M414.6,201c-4.4-7.9-16.6-3.3-14.5,5.5c3.5,14.9,5.3,30.3,5.3,46.2c0,73.4-39.2,137.9-98.3,174.4   c-14.8,9.1-23.2,25.2-22.6,42.3c0,0.8,0,1.6,0,2.4c0,1.9-0.1,3.9-0.2,5.8c-0.2,1.9-3,1.7-3-0.2c0-0.2,0-0.3,0-0.5   c0-42.5-39.4-56.8-87.1-56.8s-85.5,14.4-85.5,56.8c0,0.2,0,0.3,0,0.5c0,1.9-2.8,2-3,0.2c-0.2-1.9-0.2-3.8-0.2-5.8   c0-0.8,0-1.7,0-2.5c0.6-17-7.8-33-22.5-42.1c-59.1-36.5-98.4-101-98.4-174.4c0-15.9,1.8-31.4,5.3-46.2c2-8.7-10.2-13.3-14.5-5.5   C-44,235.9-55,275.9-55,318.5c0,105.5,67.8,195.4,162.9,230.1C114.7,576,151.1,597,195,597s80.3-21,87.1-48.4   C377.2,513.9,445,424,445,318.5C445,275.9,434,235.9,414.6,201z M119.1,479.1c1.3-18.4,16.4-33.5,35.2-35.3   c18.7-1.7,35,9.5,40.7,25.5c5.7-16.1,22-27.3,40.7-25.5c18.8,1.7,33.8,16.9,35.2,35.3c0.5,6.9-0.5,69.7-75.9,69.7   C120,548.8,118.6,486,119.1,479.1z"/><path d="M178.8,475.9c0,0-9.5-11.1-21.1-11.1s-21.1,11.1-21.1,11.1s9.5,11.1,21.1,11.1S178.8,475.9,178.8,475.9z"/><path d="M232.3,486.9c11.7,0,21.1-11.1,21.1-11.1s-9.5-11.1-21.1-11.1c-11.7,0-21.1,11.1-21.1,11.1S220.6,486.9,232.3,486.9z"/><path d="M195,518.8c0,0,9.4-7.7,9.4-17.3c0-0.3,0-0.7,0-1c-0.8-11.1-18-11.1-18.8,0c0,0.3,0,0.7,0,1C185.6,511,195,518.8,195,518.8   z"/></g><text x="-55" y="662" fill="#000000" font-size="5px" font-weight="bold" font-family="'Helvetica Neue', Helvetica, Arial-Unicode, Arial, Sans-serif">Created by Serhii Smirnov</text><text x="-55" y="667" fill="#000000" font-size="5px" font-weight="bold" font-family="'Helvetica Neue', Helvetica, Arial-Unicode, Arial, Sans-serif">from the Noun Project</text></svg>