<svg xmlns="http://www.w3.org/2000/svg" xmlns:xlink="http://www.w3.org/1999/xlink" version="1.1" x="0px" y="0px" viewBox="0 0 64 80" style="enable-background:new 0 0 64 64;" xml:space="preserve"><g><path d="M51.39,23.701C52.404,22.036,53,20.088,53,18c0-4.378-2.59-8.279-6.479-10.03l6.126-5.208l-1.201-1.595L51.18,1.345   c-3.317,2.211-7.505,2.647-11.207,1.167L38.594,1.96C36.999,1.323,35.321,1,33.606,1h-2.969c-1.891,0-3.726,0.39-5.454,1.157   c-3.812,1.694-8.16,1.324-11.629-0.989l-1.222,1.577l5.624,5.032C13.806,9.416,11,13.447,11,18c0,2.088,0.596,4.036,1.61,5.701   C10.795,25.002,7,28.601,7,36c0,8.221,6.888,18.154,7.181,18.573l0.791,1.131l3.296-4.395c1.44,1.972,3.141,3.651,5.064,4.946   C23.127,56.801,23,57.384,23,58v5h8h2h8v-5c0-0.616-0.127-1.199-0.331-1.745c1.922-1.296,3.624-2.974,5.064-4.946l3.296,4.395   l0.791-1.131C50.112,54.154,57,44.221,57,36C57,28.601,53.205,25.002,51.39,23.701z M25.996,3.985C27.467,3.331,29.028,3,30.638,3   h2.969c1.46,0,2.888,0.275,4.244,0.817l1.379,0.552c2.4,0.96,4.977,1.229,7.46,0.833L32.017,17.673L17.854,5.002   C20.562,5.477,23.388,5.145,25.996,3.985z M41,13c2.206,0,4,1.794,4,4s-1.794,4-4,4s-4-1.794-4-4c0-0.351,0.07-0.714,0.183-1.093   l3.378-2.872C40.723,13.014,40.871,13,41,13z M27,17c0,2.206-1.794,4-4,4s-4-1.794-4-4s1.794-4,4-4   c0.295,0,0.609,0.054,0.957,0.146l2.79,2.496C26.906,16.08,27,16.534,27,17z M19.666,9.307l2.051,1.835   C19.024,11.731,17,14.132,17,17c0,3.309,2.691,6,6,6c3.096,0,5.652-2.358,5.967-5.372l3.017,2.699l3.064-2.605   C35.406,20.691,37.936,23,41,23c3.309,0,6-2.691,6-6c0-2.728-1.832-5.032-4.328-5.758l2.113-1.796C48.467,10.642,51,14.085,51,18   c0,4.963-4.037,9-9,9c-1.958,0-3.817-0.618-5.38-1.785L32,21.75l-4.62,3.465C25.817,26.382,23.958,27,22,27c-4.963,0-9-4.037-9-9   C13,13.926,15.74,10.358,19.666,9.307z M34.693,26.271L32,30.984l-2.693-4.714L32,24.25L34.693,26.271z M31,61h-6v-3   c0-1.302,0.839-2.402,2-2.816V58h2v-2.816c1.161,0.414,2,1.514,2,2.816V61z M39,61h-6v-3c0-1.302,0.839-2.402,2-2.816V58h2v-2.816   c1.161,0.414,2,1.514,2,2.816V61z M48.944,52.26l-2.042-2.722C49.512,45.208,51,39.783,51,34c0-0.707-0.022-1.406-0.065-2.098   l-1.996,0.125C48.979,32.678,49,33.336,49,34c0,8.765-3.596,16.615-9.393,20.555C38.696,53.602,37.42,53,36,53   c-1.641,0-3.088,0.806-4,2.031C31.088,53.806,29.641,53,28,53c-1.42,0-2.696,0.602-3.607,1.555C18.596,50.615,15,42.765,15,34   c0-0.664,0.021-1.322,0.062-1.973l-1.996-0.125C13.022,32.594,13,33.293,13,34c0,5.783,1.488,11.208,4.097,15.537l-2.043,2.722   C13.273,49.44,9,42.045,9,36c0-6.586,3.348-9.668,4.798-10.696c0.098,0.11,0.195,0.221,0.298,0.328   c-0.194,0.72-0.37,1.449-0.511,2.179l1.965,0.377c0.072-0.373,0.155-0.745,0.242-1.117C17.56,28.286,19.697,29,22,29   c2.023,0,3.957-0.546,5.663-1.575L32,35.016l4.337-7.59C38.043,28.454,39.977,29,42,29c2.303,0,4.44-0.714,6.209-1.928   c0.087,0.371,0.17,0.744,0.242,1.117l1.965-0.377c-0.141-0.731-0.317-1.459-0.511-2.179c0.103-0.106,0.2-0.217,0.298-0.328   C51.652,26.332,55,29.414,55,36C55,42.036,50.726,49.438,48.944,52.26z"/><path d="M41.997,45.484l1.715,1.031C45.832,42.988,47,38.543,47,34h-2C45,38.186,43.934,42.264,41.997,45.484z"/><path d="M24,39c0.768,0,1.469-0.29,2-0.766C26.531,38.71,27.232,39,28,39c1.654,0,3-1.346,3-3h-2c0,0.552-0.448,1-1,1s-1-0.448-1-1   h-2c0,0.552-0.448,1-1,1s-1-0.448-1-1h-2c0,0.552-0.448,1-1,1s-1-0.448-1-1h-2c0,1.654,1.346,3,3,3c0.768,0,1.469-0.29,2-0.766   C22.531,38.71,23.232,39,24,39z"/><path d="M26,44.234C26.531,44.71,27.232,45,28,45s1.469-0.29,2-0.766C30.531,44.71,31.232,45,32,45c1.654,0,3-1.346,3-3h-2   c0,0.552-0.448,1-1,1s-1-0.448-1-1h-2c0,0.552-0.448,1-1,1s-1-0.448-1-1h-2c0,0.552-0.448,1-1,1s-1-0.448-1-1h-2   c0,1.654,1.346,3,3,3C24.768,45,25.469,44.71,26,44.234z"/><path d="M43,36h-2c0,0.552-0.448,1-1,1s-1-0.448-1-1h-2c0,0.552-0.448,1-1,1s-1-0.448-1-1h-2c0,1.654,1.346,3,3,3   c0.768,0,1.469-0.29,2-0.766C38.531,38.71,39.232,39,40,39C41.654,39,43,37.654,43,36z"/><path d="M35,49c-0.552,0-1-0.448-1-1h-2c0,0.552-0.448,1-1,1s-1-0.448-1-1h-2c0,0.552-0.448,1-1,1s-1-0.448-1-1h-2   c0,1.654,1.346,3,3,3c0.768,0,1.469-0.29,2-0.766C29.531,50.71,30.232,51,31,51s1.469-0.29,2-0.766C33.531,50.71,34.232,51,35,51   c1.654,0,3-1.346,3-3h-2C36,48.552,35.552,49,35,49z"/></g><text x="0" y="79" fill="#000000" font-size="5px" font-weight="bold" font-family="'Helvetica Neue', Helvetica, Arial-Unicode, Arial, Sans-serif">Created by Eucalyp</text><text x="0" y="84" fill="#000000" font-size="5px" font-weight="bold" font-family="'Helvetica Neue', Helvetica, Arial-Unicode, Arial, Sans-serif">from the Noun Project</text></svg>