<svg xmlns="http://www.w3.org/2000/svg" xmlns:xlink="http://www.w3.org/1999/xlink" version="1.1" x="0px" y="0px" viewBox="0 0 100 125" enable-background="new 0 0 100 100" xml:space="preserve"><symbol viewBox="-9.858 -9.858 19.716 19.716"><path fill="#000000" stroke="#592F37" stroke-width="2.5699" stroke-miterlimit="10" d="M8.573,0c0-4.735-3.838-8.573-8.573-8.573   S-8.573-4.735-8.573,0c0,4.735,3.838,8.573,8.573,8.573S8.573,4.735,8.573,0z"/><path fill="#000000" stroke="#592F37" stroke-width="2.5699" stroke-miterlimit="10" d="M2.858,0c0-1.578-1.279-2.858-2.858-2.858   c-1.578,0-2.858,1.279-2.858,2.858c0,1.578,1.279,2.858,2.858,2.858C1.578,2.858,2.858,1.578,2.858,0z"/></symbol><symbol viewBox="-5.525 -16.49 11.051 32.981"><path fill="#000000" stroke="#592F37" stroke-width="2" stroke-miterlimit="10" d="M4.526-15.49h-9.051v30.981h1.559   c4.138,0,7.492-3.354,7.492-7.492V-15.49z"/></symbol><g display="none"><rect x="-122.374" y="-293.377" display="inline" fill="#000000" width="1328.934" height="1233.377"/></g><g><path d="M35.68,41.893c5.65,0,10.229-4.58,10.229-10.229s-4.58-10.23-10.229-10.23c-5.65,0-10.229,4.58-10.229,10.23   S30.031,41.893,35.68,41.893z M29.402,30.23c0.792,0,1.434,0.642,1.434,1.434c0,2.671,2.173,4.844,4.844,4.844   s4.844-2.173,4.844-4.844c0-0.792,0.642-1.434,1.434-1.434s1.434,0.642,1.434,1.434c0,4.252-3.46,7.712-7.712,7.712   s-7.712-3.46-7.712-7.712C27.968,30.872,28.61,30.23,29.402,30.23z"/><path d="M29.186,91.088H18.912V95h46.171h18.541h0.799V36.919C84.423,19.319,70.104,5,52.504,5h-5.008   C29.896,5,15.577,19.319,15.577,36.919v8.575c0,16.662,8.282,31.416,20.937,40.393C33.718,86.708,31.173,88.499,29.186,91.088z    M19.489,45.494v-8.575c0-15.443,12.564-28.007,28.007-28.007h5.008c15.443,0,28.007,12.564,28.007,28.007v52.15   c-8.268-3.94-16.351-16.753-15.459-36.792l-3.908-0.174c-0.88,19.778,6.621,33.258,15.074,38.984H65.083   c-6.815,0-13.28-1.514-19.093-4.206c-0.369-0.196-0.743-0.379-1.124-0.537C29.843,78.879,19.489,63.377,19.489,45.494z    M40.035,89.285c1.14,0,2.258,0.239,3.323,0.682c0.203,0.1,0.408,0.197,0.613,0.294c0.47,0.236,0.927,0.509,1.368,0.827H34.731   C36.34,89.926,38.159,89.285,40.035,89.285z"/><path d="M65.371,41.893c5.649,0,10.229-4.58,10.229-10.229s-4.58-10.23-10.229-10.23c-5.65,0-10.23,4.58-10.23,10.23   S59.721,41.893,65.371,41.893z M59.092,30.23c0.792,0,1.434,0.642,1.434,1.434c0,2.671,2.173,4.844,4.844,4.844   c2.671,0,4.844-2.173,4.844-4.844c0-0.792,0.642-1.434,1.434-1.434s1.434,0.642,1.434,1.434c0,4.252-3.46,7.712-7.712,7.712   c-4.253,0-7.713-3.46-7.713-7.712C57.658,30.872,58.301,30.23,59.092,30.23z"/><polygon points="54.45,39.349 50.709,35.82 46.967,39.349 50.709,45.742  "/><path d="M33.398,52.146h-8.272c0,2.281,1.855,4.136,4.136,4.136C31.542,56.283,33.398,54.427,33.398,52.146z"/><path d="M45.254,52.146h-8.272c0,2.281,1.855,4.136,4.136,4.136S45.254,54.427,45.254,52.146z"/><path d="M52.975,56.283c2.281,0,4.136-1.855,4.136-4.136h-8.273C48.839,54.427,50.694,56.283,52.975,56.283z"/><path d="M35.954,68.875c2.281,0,4.137-1.855,4.137-4.136h-8.273C31.818,67.02,33.674,68.875,35.954,68.875z"/><path d="M47.812,68.875c2.281,0,4.136-1.855,4.136-4.136l-9.71,0c0,0,0,0,0,0h1.437C43.675,67.02,45.531,68.875,47.812,68.875z"/><path d="M50.511,81.468c2.281,0,4.136-1.855,4.136-4.136h-8.273C46.374,79.612,48.23,81.468,50.511,81.468z"/></g><text x="0" y="115" fill="#000000" font-size="5px" font-weight="bold" font-family="'Helvetica Neue', Helvetica, Arial-Unicode, Arial, Sans-serif">Created by Oksana Latysheva</text><text x="0" y="120" fill="#000000" font-size="5px" font-weight="bold" font-family="'Helvetica Neue', Helvetica, Arial-Unicode, Arial, Sans-serif">from the Noun Project</text></svg>