<svg xmlns="http://www.w3.org/2000/svg" xmlns:xlink="http://www.w3.org/1999/xlink" version="1.1" x="0px" y="0px" viewBox="0 0 100 125" enable-background="new 0 0 100 100" xml:space="preserve"><symbol viewBox="-9.858 -9.858 19.716 19.716"><path fill="#000000" stroke="#592F37" stroke-width="2.5699" stroke-miterlimit="10" d="M8.573,0c0-4.735-3.838-8.573-8.573-8.573   S-8.573-4.735-8.573,0c0,4.735,3.838,8.573,8.573,8.573S8.573,4.735,8.573,0z"/><path fill="#000000" stroke="#592F37" stroke-width="2.5699" stroke-miterlimit="10" d="M2.858,0c0-1.578-1.279-2.858-2.858-2.858   c-1.578,0-2.858,1.279-2.858,2.858c0,1.578,1.279,2.858,2.858,2.858C1.578,2.858,2.858,1.578,2.858,0z"/></symbol><symbol viewBox="-5.525 -16.49 11.051 32.981"><path fill="#000000" stroke="#592F37" stroke-width="2" stroke-miterlimit="10" d="M4.526-15.49h-9.051v30.981h1.559   c4.138,0,7.492-3.354,7.492-7.492V-15.49z"/></symbol><g display="none"><rect x="-122.374" y="-413.377" display="inline" fill="#000000" width="1328.934" height="1233.377"/></g><g><path d="M92.436,14.328L64.1,33.15c-3.189-4.341-8.313-7.175-14.1-7.175c-5.787,0-10.912,2.834-14.101,7.175L7.564,14.328   l-0.572,1.857C5.67,20.472,5,24.937,5,29.455C5,49.99,18.602,67.629,38.277,72.9L33.8,85.672h32.4L61.723,72.9   C81.398,67.629,95,49.99,95,29.455c0-4.518-0.67-8.983-1.992-13.271L92.436,14.328z M90.766,18.922   c0.79,3.066,1.211,6.218,1.295,9.403l-15.815,0.243L90.766,18.922z M50,28.878c5.258,0,9.861,2.803,12.433,6.983   c-1.304-0.761-2.815-1.205-4.431-1.205c-3.545,0-6.601,2.106-8.003,5.129c-1.402-3.023-4.457-5.129-8.003-5.129   c-1.616,0-3.127,0.444-4.43,1.205C40.139,31.681,44.742,28.878,50,28.878z M35.803,40.123c1.195-2.196,3.524-3.689,6.194-3.689   c3.886,0,7.047,3.161,7.047,7.047h0.067v6.73h1.777v-6.73c0-3.886,3.228-7.047,7.114-7.047c2.671,0,4.999,1.494,6.194,3.689   c0.255,1.08,0.405,2.2,0.405,3.357c0,8.052-6.55,14.602-14.602,14.602S35.398,51.532,35.398,43.48   C35.398,42.323,35.548,41.203,35.803,40.123z M7.903,29.455c0-3.57,0.447-7.105,1.33-10.533l15.707,10.434L7.907,29.61   C7.907,29.558,7.903,29.507,7.903,29.455z M7.977,31.828l20.227-0.306l5.434,3.609L10.453,43.97   C9.06,40.141,8.209,36.062,7.977,31.828z M17.716,56.55c-2.646-3.153-4.823-6.693-6.448-10.517l22.288-8.498   c-0.675,1.859-1.062,3.855-1.062,5.945c0,0.091,0.012,0.179,0.014,0.27L17.716,56.55z M19.181,58.213l13.586-11.757   c0.446,2.59,1.455,4.985,2.908,7.055l-6.88,12.349C25.199,63.78,21.968,61.196,19.181,58.213z M59.499,70.463l-1.58,0.364   l4.187,11.942H37.894l4.187-11.942l-1.58-0.364c-3.456-0.797-6.72-2.004-9.756-3.551L37.18,55.36   c3.199,3.45,7.755,5.625,12.82,5.625c5.389,0,10.213-2.451,13.427-6.293l6.949,11.624C67.028,68.152,63.385,69.566,59.499,70.463z    M72.29,65.201L64.835,52.73c1.322-2.112,2.207-4.518,2.525-7.103l14.311,11.641C78.972,60.338,75.818,63.016,72.29,65.201z    M83.091,55.566L67.474,42.862c-0.074-2.113-0.513-4.134-1.275-5.994l23.017,7.981C87.706,48.728,85.639,52.336,83.091,55.566z    M89.964,42.762L66.909,34.77l5.922-3.934l19.242-0.292C91.967,34.792,91.238,38.896,89.964,42.762z"/><path d="M58.004,48.358c2.689,0,4.878-2.188,4.878-4.878c0-2.689-2.188-4.878-4.878-4.878s-4.878,2.188-4.878,4.878   C53.126,46.169,55.314,48.358,58.004,48.358z M58.004,40.379c1.71,0,3.101,1.391,3.101,3.101c0,1.71-1.391,3.101-3.101,3.101   c-1.71,0-3.101-1.391-3.101-3.101C54.903,41.77,56.294,40.379,58.004,40.379z"/><path d="M46.873,43.48c0-2.689-2.188-4.878-4.878-4.878s-4.878,2.188-4.878,4.878c0,2.689,2.188,4.878,4.878,4.878   S46.873,46.169,46.873,43.48z M38.895,43.48c0-1.71,1.391-3.101,3.101-3.101c1.71,0,3.101,1.391,3.101,3.101   c0,1.71-1.391,3.101-3.101,3.101C40.286,46.581,38.895,45.19,38.895,43.48z"/></g><text x="0" y="115" fill="#000000" font-size="5px" font-weight="bold" font-family="'Helvetica Neue', Helvetica, Arial-Unicode, Arial, Sans-serif">Created by Oksana Latysheva</text><text x="0" y="120" fill="#000000" font-size="5px" font-weight="bold" font-family="'Helvetica Neue', Helvetica, Arial-Unicode, Arial, Sans-serif">from the Noun Project</text></svg>