<svg xmlns="http://www.w3.org/2000/svg" xmlns:xlink="http://www.w3.org/1999/xlink" version="1.1" x="0px" y="0px" viewBox="0 0 100 125" enable-background="new 0 0 100 100" xml:space="preserve"><path d="M38.652,18.951c-3.433,0-6.216,2.784-6.216,6.217c0,3.433,2.783,6.217,6.216,6.217c3.433,0,6.217-2.785,6.217-6.217  C44.87,21.735,42.085,18.951,38.652,18.951z M38.652,27.655c-1.374,0-2.487-1.115-2.487-2.487s1.113-2.487,2.487-2.487  c1.373,0,2.487,1.115,2.487,2.487S40.025,27.655,38.652,27.655z M50.007,1.479c-13.456,0-24.403,10.947-24.403,24.403v71.965  c0,0.109,0.041,0.204,0.062,0.306c0.098-0.002,0.222-0.005,0.385-0.007c0.396,0.012,0.972-0.057,1.704-0.18  c0.725-0.161,1.619-0.374,2.588-0.841c0.976-0.439,2.05-1.062,3.125-1.921c2.182-1.674,4.365-4.235,6.277-7.293  c1.906-3.065,3.558-6.621,4.876-10.31c0.671-1.841,1.252-3.719,1.769-5.586c0.509-1.868,0.969-3.724,1.336-5.537  c0.759-3.621,1.255-7.051,1.582-10.004c0.339-2.953,0.482-5.426,0.582-7.16c0.07-1.735,0.11-2.728,0.11-2.728s0.018,0.992,0.05,2.73  c0.002,1.737,0.003,4.224-0.162,7.207c-0.153,2.979-0.449,6.46-1.001,10.164c-0.263,1.855-0.617,3.759-1.022,5.689  c-0.415,1.927-0.894,3.877-1.471,5.805c-1.131,3.859-2.616,7.643-4.447,11.014c-1.837,3.361-4.039,6.319-6.468,8.428  c-0.357,0.323-0.721,0.617-1.086,0.898c1.566-0.384,3.122-0.884,4.655-1.513c4.752-1.95,9.285-5.081,13.472-9.307  c13.501-13.62,21.678-36.845,21.876-62.125C74.237,12.295,63.298,1.479,50.007,1.479z M38.652,35.313  c-5.593,0-10.145-4.551-10.145-10.146c0-5.595,4.551-10.146,10.145-10.146c5.594,0,10.146,4.551,10.146,10.146  C48.798,30.762,44.247,35.313,38.652,35.313z M50,42.134l-2.992-6.948L50,30.648l2.991,4.538L50,42.134z M61.347,35.313  c-5.593,0-10.145-4.551-10.145-10.146c0-5.595,4.552-10.146,10.145-10.146c5.594,0,10.146,4.551,10.146,10.146  C71.492,30.762,66.94,35.313,61.347,35.313z M61.347,18.951c-3.432,0-6.216,2.783-6.216,6.217s2.784,6.217,6.216,6.217  c3.433,0,6.217-2.783,6.217-6.217S64.779,18.951,61.347,18.951z M61.347,27.655c-1.374,0-2.487-1.115-2.487-2.487  s1.113-2.487,2.487-2.487c1.373,0,2.486,1.115,2.486,2.487S62.72,27.655,61.347,27.655z"/><text x="0" y="115" fill="#000000" font-size="5px" font-weight="bold" font-family="'Helvetica Neue', Helvetica, Arial-Unicode, Arial, Sans-serif">Created by Matt Hawdon</text><text x="0" y="120" fill="#000000" font-size="5px" font-weight="bold" font-family="'Helvetica Neue', Helvetica, Arial-Unicode, Arial, Sans-serif">from the Noun Project</text></svg>