<svg xmlns="http://www.w3.org/2000/svg" data-name="Layer 1" viewBox="0 0 100 125" x="0px" y="0px"><title>10</title><g data-name="Group"><path data-name="Compound Path" d="M61.45,40.82a32.61,32.61,0,0,0,17.25-4.88C88.14,30,93.25,19.89,92,9.49a3,3,0,0,0-1.67-2.3A32.58,32.58,0,0,0,59,8.85C50,14.46,44.86,24.11,45.54,34q0,.63.12,1.26a2.83,2.83,0,0,0,.23.8l0,33.52L43.52,68.4c0-.1,0-.19,0-.29q0-.74-.06-1.48A21.83,21.83,0,0,0,9.2,50.28a3.29,3.29,0,0,0-1.07,1.26l0,0a.94.94,0,0,0,0,.12A3.28,3.28,0,0,0,7.79,53,21.81,21.81,0,0,0,40.9,71.64q.63-.38,1.25-.81a3.29,3.29,0,0,0,.62-.57l3.15,1.6,0,24.2h2l-.07-58.21.65.3A32.24,32.24,0,0,0,61.45,40.82ZM39.87,69.92A19.83,19.83,0,0,1,9.82,53.56l31,15.73C40.53,69.51,40.21,69.72,39.87,69.92ZM10.64,51.73a19.83,19.83,0,0,1,30.87,15c0,.21,0,.41,0,.62Zm67-17.49a30.77,30.77,0,0,1-28.3,2.08L48.61,36,90.08,10.22C91,19.67,86.26,28.84,77.63,34.24Zm-30.07,0c0-.13,0-.25,0-.38C46.9,24.72,51.7,15.77,60,10.54A30.52,30.52,0,0,1,88.78,8.67Z"/></g><text x="0" y="115" fill="#000000" font-size="5px" font-weight="bold" font-family="'Helvetica Neue', Helvetica, Arial-Unicode, Arial, Sans-serif">Created by Logan</text><text x="0" y="120" fill="#000000" font-size="5px" font-weight="bold" font-family="'Helvetica Neue', Helvetica, Arial-Unicode, Arial, Sans-serif">from the Noun Project</text></svg>