<svg xmlns="http://www.w3.org/2000/svg" xmlns:xlink="http://www.w3.org/1999/xlink" version="1.1" x="0px" y="0px" viewBox="0 0 90 112.5" style="enable-background:new 0 0 90 90;" xml:space="preserve"><style type="text/css">
	.st0{clip-path:url(#SVGID_2_);}
	.st1{fill:none;}
	.st2{fill:#754C29;}
	.st3{fill:#B9E5FB;}
	.st4{fill:#F386A1;}
	.st5{clip-path:url(#SVGID_4_);}
	.st6{clip-path:url(#SVGID_6_);}
	.st7{fill:#AB794F;}
	.st8{fill:#DEC292;}
	.st9{fill:#FFFFFF;}
	.st10{fill:#231F20;}
	.st11{clip-path:url(#SVGID_8_);}
	.st12{clip-path:url(#SVGID_10_);}
	.st13{fill:#684A3C;}
	.st14{fill:#E6CFA1;}
	.st15{fill:#B5061B;}
	.st16{clip-path:url(#SVGID_12_);}
	.st17{clip-path:url(#SVGID_14_);}
	.st18{clip-path:url(#SVGID_16_);}
	.st19{fill:#F6C9C3;}
	.st20{clip-path:url(#SVGID_18_);}
	.st21{clip-path:url(#SVGID_20_);}
	.st22{clip-path:url(#SVGID_22_);}
	.st23{fill:#5D5D5D;}
	.st24{fill:#48AAA3;}
	.st25{fill:#CAE2AA;}
	.st26{fill:#E26E05;}
	.st27{fill:#444344;}
	.st28{fill:#8DD9DB;}
	.st29{fill:#69352A;}
	.st30{fill:#F7EA79;}
	.st31{fill:#8C493E;}
	.st32{fill:#F7941E;}
	.st33{fill:#FF818B;}
	.st34{fill:#70695B;}
	.st35{fill:#E25059;}
	.st36{fill:#BFD63B;}
	.st37{fill:#589332;}
	.st38{fill:#FCB065;}
	.st39{fill:#726356;}
	.st40{fill:#F7A1A0;}
	.st41{fill:#8E8075;}
	.st42{fill:#FF7B00;}
	.st43{fill:#FEBF02;}
	.st44{fill:#B8D608;}
	.st45{fill:#4BC1A9;}
	.st46{fill:#FDFF1F;}
	.st47{fill:#F9139C;}
	.st48{fill:#79649B;}
	.st49{fill:#FCCDD2;}
	.st50{fill:#8E0654;}
	.st51{fill:#C14266;}
	.st52{fill:#F2728C;}
	.st53{fill:#FABCA8;}
	.st54{fill:#FFEB94;}
	.st55{fill:#F68A50;}
	.st56{fill:#D11E0B;}
	.st57{fill:#F9E280;}
	.st58{fill:#F2270C;}
	.st59{fill:#F15B5D;}
	.st60{fill:#00BBCE;}
	.st61{fill:#D9EEE7;}
	.st62{fill:#858726;}
	.st63{fill:#BAD532;}
	.st64{fill:#FFE800;}
	.st65{fill:#9E1913;}
	.st66{fill:#FFC20E;}
	.st67{fill:#036E7F;}
	.st68{fill:#AFDFE2;}
	.st69{fill:#9B5B36;}
	.st70{fill:#D3AF71;}
	.st71{fill:#952E1F;}
	.st72{fill:#EF4129;}
	.st73{fill:#FBBC9E;}
	.st74{fill:#AF1308;}
	.st75{fill:#E8D9A9;}
	.st76{fill:#6B4B39;}
</style><g><path d="M41.3,23.5c-3.6-3.7-9.5-3.8-13.1-0.2c-3.6,3.6-3.6,9.5,0,13.1c3.6,3.7,9.5,3.8,13.1,0.2C44.9,33.1,44.9,27.2,41.3,23.5z    M40.9,24.3c0.3,0.3,0.5,0.6,0.7,0.9c-0.6-0.3-1.4-0.2-2,0.4c-0.7,0.7-0.7,1.8,0,2.5c0.7,0.7,1.8,0.7,2.5,0c0,0,0.1-0.1,0.1-0.1   c-0.1,1.1-0.5,2.2-1.4,3.1c-1.9,1.8-4.9,1.8-6.7-0.1c-1.9-1.9-1.9-4.9,0-6.8C36,22.3,39,22.4,40.9,24.3z"/><path d="M61.6,23.6c-3.6-3.7-9.5-3.8-13.1-0.2c-3.6,3.6-3.6,9.5,0,13.1c1.6,1.6,3.6,2.5,5.7,2.8l0,0c2.7,0.3,5.4-0.6,7.4-2.6   c1.2-1.2,2-2.5,2.4-4l0,0C64.8,29.6,64,26.1,61.6,23.6z M60.8,24.2c0.3,0.3,0.5,0.6,0.7,0.9c-0.6-0.3-1.4-0.2-2,0.4   c-0.7,0.7-0.7,1.8,0,2.5c0.7,0.7,1.8,0.7,2.5,0c0,0,0.1-0.1,0.1-0.1c-0.1,1.1-0.5,2.2-1.4,3.1c-1.9,1.8-4.9,1.8-6.7-0.1   c-1.9-1.9-1.8-4.9,0-6.8C55.9,22.3,58.9,22.3,60.8,24.2z"/><path d="M78.5,48.6C84.7,44.5,90,35.9,90,35.9c-1.7,2-5,3-8,3.5c2-4.5,3-8.6,3-8.6c-2.1,5.2-12.8,8.1-12.9,8.2c0,0,0,0,0,0   c-0.2,0-0.4,0.1-0.5,0.2c-0.6,0.2-1.2,0.4-1.7,0.6c-0.2,0.1-0.3,0.1-0.5,0.2c1.1-8.9,1-17.7,0.8-23.9l0,0c-0.2-5.3-0.7-8.8-0.7-8.8   C41.3,29.3,20,7.4,20,7.4c-0.6,6.8-0.8,12.9-0.8,18.4h0c0,5.2,0.4,9.9,0.9,14.1c-0.5-0.2-1.1-0.4-1.6-0.5c-0.2-0.1-0.4-0.1-0.5-0.1   c0,0,0,0,0,0c-0.1,0-10.9-2.8-13.1-8c0,0,1.1,4,3.2,8.5c-3-0.4-6.4-1.4-8.1-3.4c0,0,5.4,8.5,11.7,12.6c-1.7,0.3-3.5,0.4-4.9-0.1   c0,0,10.2,5.1,15.6,3.8l0,0c0.1,0,0.1,0,0.2-0.1c3,9.9,7.4,15.4,11.6,18.3c-1,3,0.6,7.7,4.7,5.4c-6.4,3.7,6.5,10.6,6.4,3.4   c0.1,7.2,12.8-0.1,6.2-3.6c4.2,2.2,5.6-2.7,4.4-5.6c5.4-4,8.9-10.8,11-18.4c0.3,0.1,0.6,0.2,0.9,0.2l0,0c5.4,1.3,15.5-3.9,15.5-3.9   C81.9,49,80.2,48.9,78.5,48.6z M23,19.5l-1.7,0.8l0.2-4.1l0.2-4.1l3.5,2.3l0,0l0,0l3.4,2.3L25,18.5L23,19.5L23,19.5z M35.1,57.6   c-0.2,0.2-0.3,0.3-0.5,0.4c-0.2,0.1-0.4,0.2-0.6,0.2c-0.2,0-0.4,0-0.6-0.1c-0.4-0.1-0.7-0.4-0.8-0.8c-0.1-0.2-0.2-0.4-0.2-0.6   c0-0.2-0.1-0.4,0-0.7c0.2,0.3,0.4,0.6,0.7,0.8c0.2,0.2,0.5,0.4,0.7,0.5c0.2,0.1,0.5,0.1,0.8,0.1c0.3,0,0.6-0.2,1-0.3   C35.4,57.2,35.2,57.4,35.1,57.6z M38.9,63.2c-0.2,0.1-0.3,0.3-0.5,0.4c-0.2,0.1-0.4,0.2-0.6,0.2c-0.2,0-0.4,0-0.6-0.1   c-0.4-0.1-0.7-0.5-0.8-0.8c-0.1-0.2-0.2-0.4-0.2-0.6c0-0.2-0.1-0.4,0-0.7c0.2,0.3,0.4,0.6,0.7,0.8c0.2,0.2,0.5,0.4,0.7,0.5   c0.2,0.1,0.5,0.1,0.8,0.1c0.3,0,0.6-0.2,1-0.2C39.2,62.9,39.1,63,38.9,63.2z M43.4,68.1c-0.1,0.2-0.2,0.4-0.4,0.5   c-0.1,0.2-0.3,0.3-0.5,0.4c-0.2,0.1-0.4,0.1-0.6,0.1c-0.4,0-0.8-0.2-1.1-0.5c-0.1-0.1-0.3-0.3-0.4-0.5c-0.1-0.2-0.2-0.4-0.2-0.6   c0.3,0.2,0.6,0.4,0.9,0.5c0.3,0.1,0.6,0.2,0.8,0.2c0.3,0,0.5-0.1,0.8-0.2c0.3-0.1,0.6-0.3,0.9-0.6C43.6,67.7,43.5,67.9,43.4,68.1z    M40.2,57.8c0.3,0.2,0.6,0.4,0.9,0.5c0.3,0.1,0.6,0.2,0.8,0.2c0.3,0,0.5-0.1,0.8-0.2c0.3-0.1,0.6-0.3,0.9-0.6   c-0.1,0.2-0.1,0.4-0.2,0.6c-0.1,0.2-0.2,0.4-0.4,0.5c-0.1,0.2-0.3,0.3-0.5,0.4c-0.2,0.1-0.4,0.1-0.6,0.1c-0.4,0-0.8-0.2-1.1-0.5   c-0.1-0.1-0.3-0.3-0.4-0.5C40.3,58.3,40.2,58.1,40.2,57.8z M46.4,63.3c-0.1,0.2-0.2,0.4-0.4,0.5c-0.1,0.1-0.3,0.3-0.5,0.4   c-0.2,0.1-0.4,0.1-0.6,0.1c-0.4,0-0.8-0.2-1.1-0.5c-0.1-0.1-0.3-0.3-0.4-0.5c-0.1-0.2-0.2-0.4-0.2-0.6c0.3,0.2,0.6,0.4,0.9,0.5   c0.3,0.1,0.6,0.2,0.8,0.2c0.3,0,0.5-0.1,0.8-0.2c0.3-0.1,0.6-0.3,0.9-0.6C46.6,62.9,46.5,63.1,46.4,63.3z M49.9,68.1   c-0.1,0.2-0.2,0.4-0.4,0.6c-0.1,0.2-0.3,0.3-0.5,0.4c-0.2,0.1-0.4,0.1-0.6,0.1c-0.4,0-0.8-0.2-1.1-0.6c-0.1-0.2-0.3-0.3-0.4-0.5   c-0.1-0.2-0.2-0.4-0.2-0.7c0.3,0.2,0.6,0.4,0.9,0.6c0.3,0.1,0.6,0.2,0.8,0.2c0.3,0,0.5-0.1,0.8-0.2c0.3-0.1,0.6-0.4,0.9-0.6   C50.1,67.7,50,67.9,49.9,68.1z M49.5,59c-0.1-0.2-0.3-0.3-0.4-0.6c-0.1-0.2-0.2-0.4-0.2-0.7c0.3,0.2,0.6,0.4,0.9,0.6   c0.3,0.2,0.6,0.2,0.8,0.3c0.3,0,0.5-0.1,0.8-0.2c0.3-0.1,0.6-0.4,0.9-0.6c-0.1,0.2-0.1,0.5-0.2,0.7c-0.1,0.2-0.2,0.4-0.4,0.6   c-0.1,0.2-0.3,0.3-0.5,0.4c-0.2,0.1-0.4,0.1-0.6,0.1C50.1,59.5,49.8,59.3,49.5,59z M54.2,62.8c-0.1,0.2-0.2,0.4-0.3,0.6   c-0.1,0.2-0.3,0.3-0.5,0.4C53.2,64,53,64,52.8,64c-0.4,0-0.8-0.2-1.1-0.4c-0.2-0.1-0.3-0.3-0.4-0.5c-0.1-0.2-0.2-0.4-0.3-0.6   c0.3,0.2,0.6,0.4,0.9,0.5c0.3,0.1,0.6,0.2,0.8,0.2c0.3,0,0.5-0.1,0.8-0.3c0.3-0.2,0.5-0.4,0.8-0.7C54.3,62.3,54.3,62.6,54.2,62.8z    M59.3,57.4c-0.1,0.2-0.1,0.4-0.2,0.6c-0.1,0.2-0.2,0.4-0.4,0.5c-0.2,0.1-0.3,0.2-0.5,0.2c-0.4,0.1-0.8-0.1-1.1-0.3   c-0.2-0.1-0.3-0.3-0.5-0.5c-0.1-0.2-0.3-0.4-0.4-0.6c0.4,0.2,0.7,0.3,1,0.4c0.3,0.1,0.6,0.1,0.8,0.1c0.3,0,0.5-0.2,0.7-0.4   c0.2-0.2,0.5-0.5,0.7-0.8C59.4,57,59.4,57.2,59.3,57.4z M53.8,42.7c-2.2,0-4.3-0.5-6.2-1.4L47,42.4l-1.8,3.2l-1.9-3.2l-0.6-1.1   c-1.8,0.9-3.9,1.4-6.2,1.5c-7.4,0-13.5-5.6-13.6-12.6c0-1.9,0.4-3.7,1.2-5.3h0c2.1-4.4,6.7-7.4,12.1-7.4c3.3,0,6.3,1.1,8.6,2.9   c2.3-1.9,5.3-3,8.6-3c1.7,0,3.4,0.3,4.9,0.9l0,0c5,1.8,8.6,6.4,8.6,11.7C67.2,36.9,61.3,42.6,53.8,42.7z M63.9,18.6l-2-1.1l0,0   l-1.7-0.9l3.5-2.2l3.5-2.2l0.1,4.2l0,0h0l0.1,4.1L63.9,18.6z"/></g><text x="0" y="105" fill="#000000" font-size="5px" font-weight="bold" font-family="'Helvetica Neue', Helvetica, Arial-Unicode, Arial, Sans-serif">Created by emel çelik</text><text x="0" y="110" fill="#000000" font-size="5px" font-weight="bold" font-family="'Helvetica Neue', Helvetica, Arial-Unicode, Arial, Sans-serif">from the Noun Project</text></svg>