<svg xmlns="http://www.w3.org/2000/svg" data-name="Layer 1" viewBox="0 0 100 125" x="0px" y="0px"><title>12</title><g data-name="Group"><path data-name="Compound Path" d="M90.44,9.56A2,2,0,0,0,88.84,9a74.21,74.21,0,0,0-48.3,24.27l0-.11L26.64,37.47a27.93,27.93,0,0,0-13.2,8.83l-1.08,1.31a2,2,0,0,0,1.22,3.25L27.7,53.14a72.73,72.73,0,0,0-3.36,9.32,2,2,0,0,0,.51,2L35.58,75.15a2,2,0,0,0,2,.51,72.73,72.73,0,0,0,9.32-3.36l2.28,14.13a2,2,0,0,0,3.25,1.22l1.31-1.08a27.92,27.92,0,0,0,8.83-13.2l4.32-13.87-.11,0A74.21,74.21,0,0,0,91,11.16,2,2,0,0,0,90.44,9.56ZM17.75,47.49a23.94,23.94,0,0,1,10.08-6.2l8.24-2.57a73.74,73.74,0,0,0-6.61,10.65Zm41,24.68a23.93,23.93,0,0,1-6.2,10.08L50.63,70.54a73.75,73.75,0,0,0,10.65-6.61Zm-21.14-.69-9.06-9.06a70.38,70.38,0,0,1,58.25-49.2A70.38,70.38,0,0,1,37.57,71.48Z"/><path data-name="Compound Path" d="M9.2,89A2,2,0,0,0,11,90.8l1.17.12a20.86,20.86,0,0,0,2.11.11,16,16,0,0,0,10.26-3.39,14.64,14.64,0,0,0,5.21-10.18l.05-.53a2,2,0,0,0-.58-1.61l-4.52-4.52a2,2,0,0,0-1.61-.58l-.54.05a14.65,14.65,0,0,0-10.18,5.21A16.67,16.67,0,0,0,9.08,87.84Zm6.26-11a10.62,10.62,0,0,1,7.07-3.71l3.17,3.17A10.62,10.62,0,0,1,22,84.53,12.37,12.37,0,0,1,13,87,12.37,12.37,0,0,1,15.47,78Z"/><path data-name="Compound Path" d="M62.46,46.36a8.82,8.82,0,1,0-6.24-2.58A8.79,8.79,0,0,0,62.46,46.36ZM59,34.13A4.82,4.82,0,1,1,59,41,4.8,4.8,0,0,1,59,34.13Z"/></g><text x="0" y="115" fill="#000000" font-size="5px" font-weight="bold" font-family="'Helvetica Neue', Helvetica, Arial-Unicode, Arial, Sans-serif">Created by Logan</text><text x="0" y="120" fill="#000000" font-size="5px" font-weight="bold" font-family="'Helvetica Neue', Helvetica, Arial-Unicode, Arial, Sans-serif">from the Noun Project</text></svg>