<svg xmlns="http://www.w3.org/2000/svg" xmlns:xlink="http://www.w3.org/1999/xlink" version="1.1" x="0px" y="0px" viewBox="0 0 100 125" enable-background="new 0 0 100 100" xml:space="preserve"><g><g><g><path fill="#000000" d="M54,83.2c-4.4,0-9.5-0.5-15.6-1.6c-0.9-0.2-1.6-1.1-1.4-2c0.2-0.9,1.1-1.6,2-1.4     c20.2,3.9,29.8-0.7,32.3-2.1V28.3c0-10.7-9.8-19.5-21.8-19.5c-12,0-21.8,8.7-21.8,19.5v15.8c0,1-0.8,1.7-1.7,1.7     c-1,0-1.7-0.8-1.7-1.7V28.3c0-12.7,11.3-23,25.3-23s25.3,10.3,25.3,23v49.4l-0.6,0.5C73.9,78.5,68.1,83.2,54,83.2z"/></g><g><path fill="#000000" d="M37.4,32.1c-3.1,0-5.6-2.5-5.6-5.6s2.5-5.6,5.6-5.6c3.1,0,5.6,2.5,5.6,5.6S40.5,32.1,37.4,32.1z      M37.4,24.3c-1.2,0-2.1,1-2.1,2.1c0,1.2,1,2.1,2.1,2.1c1.2,0,2.1-1,2.1-2.1C39.5,25.3,38.6,24.3,37.4,24.3z"/></g><g><path fill="#000000" d="M61.8,32.1c-3.1,0-5.6-2.5-5.6-5.6s2.5-5.6,5.6-5.6c3.1,0,5.6,2.5,5.6,5.6S64.9,32.1,61.8,32.1z      M61.8,24.3c-1.2,0-2.1,1-2.1,2.1c0,1.2,1,2.1,2.1,2.1c1.2,0,2.1-1,2.1-2.1C64,25.3,63,24.3,61.8,24.3z"/></g><g><path fill="#000000" d="M49.6,32.4C49.6,32.4,49.6,32.4,49.6,32.4c-1,0-1.7-0.8-1.7-1.8c0-6.3-1.5-10.6-4.6-12.6     c-4.9-3.3-12.2-0.2-12.3-0.2l-6.4,2.7c-0.9,0.4-1.9,0-2.3-0.9c-0.4-0.9,0-1.9,0.9-2.3l6.4-2.7c0.4-0.2,9.2-3.8,15.6,0.5     c4.1,2.7,6.2,8,6.2,15.5C51.3,31.6,50.5,32.4,49.6,32.4z"/></g><g><path fill="#000000" d="M49.6,32.4c-1,0-1.7-0.8-1.7-1.7c0-7.6,2-12.8,6.2-15.5c6.4-4.3,15.2-0.6,15.6-0.5l0.2,0.1l7.3,4     c0.8,0.5,1.1,1.5,0.7,2.4c-0.5,0.8-1.5,1.2-2.4,0.7l-7.2-4c-0.8-0.3-7.7-2.9-12.3,0.2c-3.1,2.1-4.6,6.3-4.6,12.6     C51.3,31.6,50.5,32.3,49.6,32.4C49.6,32.4,49.6,32.4,49.6,32.4z"/></g><g><path fill="#000000" d="M22.7,94.6l-0.7-52l1.6-0.1c12.9-1.2,20.7,1.3,23.3,7.3c2.5,5.9-0.4,14.8-8.6,26.4     c-5.9,8.4-12.4,15.1-12.6,15.4L22.7,94.6z M25.6,45.8L26.1,86c8-9,21.2-26.4,17.6-34.9C41.9,46.9,35.8,45.1,25.6,45.8z"/></g><g><g><path fill="#000000" d="M67.3,52.2c-0.1,0.1-0.2,0.2-0.4,0.2c-0.4,0.1-0.8-0.2-0.9-0.6l-0.9-4.4l-3.3,3.6l-1.4-7.3      c-0.1-0.4,0.2-0.8,0.6-0.9c0.4-0.1,0.8,0.2,0.9,0.6l0.8,4.3l3.3-3.6l1.5,7.4C67.6,51.8,67.5,52,67.3,52.2z"/><path fill="#000000" d="M66.8,52.7c-0.5,0-0.9-0.4-1-0.9L65,48l-3.3,3.6l-1.5-7.9c-0.1-0.6,0.3-1.1,0.8-1.2      c0.6-0.1,1.1,0.3,1.2,0.8l0.7,3.7l3.3-3.7l1.6,8c0.1,0.3,0,0.7-0.3,1c-0.1,0.1-0.3,0.2-0.5,0.3C66.9,52.7,66.9,52.7,66.8,52.7z       M65.3,46.8l1,5c0,0.3,0.3,0.4,0.6,0.4c0.1,0,0.2-0.1,0.2-0.1c0.1-0.1,0.2-0.3,0.1-0.4l-1.3-6.9l-3.3,3.7l-0.9-4.9      c0-0.3-0.3-0.4-0.6-0.4c-0.3,0.1-0.4,0.3-0.4,0.6l1.3,6.7L65.3,46.8z"/></g></g><g><g><path fill="#000000" d="M52.5,62.2c-0.1,0-0.3-0.1-0.4-0.2c-0.3-0.3-0.3-0.8,0-1.1l3.2-3.2L50.3,57l5.2-5.3      c0.3-0.3,0.8-0.3,1.1,0c0.3,0.3,0.3,0.8,0,1.1l-3.1,3.1l4.9,0.7l-5.3,5.4C53,62.1,52.7,62.2,52.5,62.2z"/><path fill="#000000" d="M52.6,62.5c-0.1,0-0.1,0-0.2,0c-0.2,0-0.4-0.1-0.5-0.3c-0.4-0.4-0.4-1.1,0-1.5l2.7-2.8l-4.9-0.7l5.6-5.7      c0.4-0.4,1.1-0.4,1.5,0c0.4,0.4,0.4,1.1,0,1.5l-2.7,2.7l4.9,0.7l-5.7,5.8C53.2,62.3,52.9,62.5,52.6,62.5z M50.9,56.8l4.9,0.7      l-3.6,3.6c-0.2,0.2-0.2,0.5,0,0.7c0.1,0.1,0.2,0.1,0.2,0.1c0.2,0,0.3,0,0.4-0.1l4.9-5L53,56.1l3.5-3.5c0.2-0.2,0.2-0.5,0-0.7      c-0.2-0.2-0.5-0.2-0.7,0L50.9,56.8z"/></g></g><g><g><path fill="#000000" d="M54.1,76.5c-0.1,0.1-0.2,0.2-0.4,0.2c-0.4,0.1-0.8-0.2-0.9-0.6l-0.9-4.4l-3.3,3.6l-1.4-7.3      c-0.1-0.4,0.2-0.8,0.6-0.9c0.4-0.1,0.8,0.2,0.9,0.6l0.8,4.3l3.3-3.6l1.5,7.4C54.3,76.1,54.2,76.4,54.1,76.5z"/><path fill="#000000" d="M53.5,77.1c-0.5,0-0.9-0.4-1-0.9l-0.7-3.8L48.4,76l-1.5-7.9c-0.1-0.6,0.3-1.1,0.8-1.2      c0.6-0.1,1.1,0.3,1.2,0.8l0.7,3.7l3.3-3.7l1.6,8c0.1,0.3,0,0.7-0.3,1c-0.1,0.1-0.3,0.2-0.5,0.3C53.7,77.1,53.6,77.1,53.5,77.1z       M52.1,71.1l1,5c0,0.3,0.3,0.4,0.6,0.4c0.1,0,0.2-0.1,0.2-0.1c0.1-0.1,0.2-0.3,0.1-0.4l-1.3-6.9l-3.3,3.7l-0.9-4.9      c0-0.3-0.3-0.4-0.6-0.4c-0.3,0.1-0.4,0.3-0.4,0.6l1.3,6.7L52.1,71.1z"/></g></g><g><g><path fill="#000000" d="M64.2,71.6c-0.1,0-0.3,0-0.4,0c-0.4-0.2-0.6-0.6-0.4-1l1.7-4.1l-4.8,1.2l2.9-6.9c0.2-0.4,0.6-0.6,1-0.4      c0.4,0.2,0.6,0.6,0.4,1l-1.7,4l4.8-1.2l-2.9,7C64.7,71.4,64.5,71.6,64.2,71.6z"/><path fill="#000000" d="M64.1,72c-0.1,0-0.3,0-0.4-0.1c-0.5-0.2-0.8-0.8-0.6-1.4l1.5-3.6l-4.8,1.2l3.1-7.4      c0.2-0.5,0.9-0.8,1.4-0.6c0.5,0.2,0.8,0.8,0.6,1.4L63.4,65l4.8-1.2L65,71.3c-0.1,0.3-0.4,0.6-0.8,0.6C64.2,71.9,64.1,72,64.1,72      z M65.6,66l-2,4.7c-0.1,0.2,0,0.5,0.3,0.6c0.1,0,0.2,0,0.3,0c0.2,0,0.3-0.1,0.3-0.3l2.7-6.4l-4.8,1.2l1.9-4.6      c0.1-0.2,0-0.5-0.3-0.6c-0.2-0.1-0.5,0-0.6,0.3l-2.7,6.3L65.6,66z"/></g></g><g><path fill="#000000" d="M49.7,41.1c-0.5,0-1-0.3-1.3-0.7l-4.8-8.3c-0.3-0.4-0.3-1,0-1.5c0.3-0.4,0.7-0.7,1.3-0.7h9.6     c0.5,0,1,0.3,1.3,0.7s0.3,1,0,1.5l-4.8,8.3C50.7,40.9,50.2,41.1,49.7,41.1z M47.4,32.8l2.3,4l2.3-4H47.4z"/></g><g><path fill="#000000" d="M74.5,15h-8.3c-1,0-1.7-0.8-1.7-1.7s0.8-1.7,1.7-1.7h8.3c1,0,1.7,0.8,1.7,1.7S75.4,15,74.5,15z"/></g><g><path fill="#000000" d="M65.7,13.5c-0.6,0-1.2-0.3-1.5-0.9c-0.5-0.8-0.2-1.9,0.7-2.4l5.4-2.9c0.8-0.5,1.9-0.2,2.4,0.7     c0.5,0.8,0.2,1.9-0.7,2.4l-5.4,2.9C66.3,13.4,66,13.5,65.7,13.5z"/></g><g><path fill="#000000" d="M32.7,13.5c-0.3,0-0.6-0.1-0.8-0.2l-5.4-2.9c-0.8-0.5-1.2-1.5-0.7-2.4c0.5-0.8,1.5-1.2,2.4-0.7l5.4,2.9     c0.8,0.5,1.2,1.5,0.7,2.4C33.9,13.1,33.3,13.5,32.7,13.5z"/></g><g><path fill="#000000" d="M32.6,15h-8.3c-1,0-1.7-0.8-1.7-1.7s0.8-1.7,1.7-1.7h8.3c1,0,1.7,0.8,1.7,1.7S33.6,15,32.6,15z"/></g></g><g><path fill="#000000" d="M25,80.3l-2.2-1.9C33.4,66,36,57.5,36.4,52.5c0.4-5.2-1.6-7.6-1.7-7.7l2.2-1.9C37.3,43.3,47,54.7,25,80.3z    "/></g></g><text x="0" y="115" fill="#000000" font-size="5px" font-weight="bold" font-family="'Helvetica Neue', Helvetica, Arial-Unicode, Arial, Sans-serif">Created by Christine Soules</text><text x="0" y="120" fill="#000000" font-size="5px" font-weight="bold" font-family="'Helvetica Neue', Helvetica, Arial-Unicode, Arial, Sans-serif">from the Noun Project</text></svg>